<svg xmlns="http://www.w3.org/2000/svg" viewBox="0 0 900 1100" role="img" aria-labelledby="title desc">
  <title id="title">Single camera preview</title>
  <desc id="desc">A stylized Security Center camera detail view with an overlay label and live status badge.</desc>
  <defs>
    <linearGradient id="bg" x1="0%" y1="0%" x2="100%" y2="100%">
      <stop offset="0%" stop-color="#0f1719"/>
      <stop offset="100%" stop-color="#223033"/>
    </linearGradient>
    <linearGradient id="feed" x1="0%" y1="0%" x2="100%" y2="100%">
      <stop offset="0%" stop-color="#61745d"/>
      <stop offset="100%" stop-color="#27352f"/>
    </linearGradient>
  </defs>
  <rect width="900" height="1100" rx="42" fill="url(#bg)"/>
  <rect x="42" y="42" width="816" height="1016" rx="28" fill="#0b1011"/>
  <rect x="78" y="78" width="744" height="58" rx="18" fill="#182225"/>
  <circle cx="116" cy="107" r="9" fill="#c99956"/>
  <circle cx="142" cy="107" r="9" fill="#63b8aa"/>
  <rect x="194" y="93" width="210" height="28" rx="14" fill="#f3efe4" opacity="0.16"/>
  <rect x="78" y="168" width="744" height="842" rx="26" fill="url(#feed)"/>
  <circle cx="468" cy="556" r="164" fill="#101718" opacity="0.28"/>
  <rect x="110" y="204" width="196" height="48" rx="24" fill="#11191b" opacity="0.82"/>
  <rect x="126" y="220" width="106" height="16" rx="8" fill="#f3efe4"/>
  <rect x="688" y="204" width="100" height="44" rx="22" fill="#2f6a62" opacity="0.9"/>
  <circle cx="718" cy="226" r="8" fill="#d8fff7"/>
  <rect x="732" y="218" width="34" height="16" rx="8" fill="#d8fff7"/>
  <rect x="568" y="920" width="220" height="52" rx="26" fill="#11191b" opacity="0.88"/>
  <rect x="594" y="938" width="116" height="16" rx="8" fill="#f3efe4"/>
</svg>
