<svg xmlns="http://www.w3.org/2000/svg" viewBox="0 0 1280 900" role="img" aria-labelledby="title desc">
  <title id="title">Saved grid preview</title>
  <desc id="desc">A stylized Security Center grid view with four camera cells and a left sidebar.</desc>
  <defs>
    <linearGradient id="bg" x1="0%" y1="0%" x2="100%" y2="100%">
      <stop offset="0%" stop-color="#121a1c"/>
      <stop offset="100%" stop-color="#1d2a2d"/>
    </linearGradient>
    <linearGradient id="feed1" x1="0%" y1="0%" x2="100%" y2="100%">
      <stop offset="0%" stop-color="#446a6b"/>
      <stop offset="100%" stop-color="#1f3739"/>
    </linearGradient>
    <linearGradient id="feed2" x1="0%" y1="0%" x2="100%" y2="100%">
      <stop offset="0%" stop-color="#6a6345"/>
      <stop offset="100%" stop-color="#3a3422"/>
    </linearGradient>
  </defs>
  <rect width="1280" height="900" rx="40" fill="url(#bg)"/>
  <rect x="38" y="38" width="230" height="824" rx="28" fill="#182225"/>
  <rect x="78" y="94" width="150" height="20" rx="10" fill="#f0eadc" opacity="0.9"/>
  <g fill="#8ca5a0" opacity="0.95">
    <rect x="74" y="168" width="158" height="54" rx="16"/>
    <rect x="74" y="238" width="158" height="54" rx="16"/>
    <rect x="74" y="308" width="158" height="54" rx="16"/>
    <rect x="74" y="410" width="158" height="46" rx="16" fill="#315d57"/>
    <rect x="74" y="470" width="158" height="46" rx="16"/>
    <rect x="74" y="530" width="158" height="46" rx="16"/>
  </g>
  <rect x="304" y="38" width="938" height="824" rx="28" fill="#0d1213"/>
  <rect x="344" y="78" width="858" height="48" rx="16" fill="#182225"/>
  <circle cx="382" cy="102" r="8" fill="#d49f5c"/>
  <circle cx="406" cy="102" r="8" fill="#5ca698"/>
  <rect x="454" y="88" width="184" height="28" rx="14" fill="#f0eadc" opacity="0.16"/>
  <g>
    <rect x="344" y="160" width="414" height="318" rx="22" fill="url(#feed1)"/>
    <rect x="788" y="160" width="414" height="318" rx="22" fill="url(#feed2)"/>
    <rect x="344" y="508" width="414" height="318" rx="22" fill="url(#feed2)"/>
    <rect x="788" y="508" width="414" height="318" rx="22" fill="url(#feed1)"/>
  </g>
  <g fill="#f3efe4" opacity="0.96">
    <rect x="374" y="188" width="150" height="36" rx="18"/>
    <rect x="818" y="188" width="170" height="36" rx="18"/>
    <rect x="374" y="536" width="156" height="36" rx="18"/>
    <rect x="818" y="536" width="162" height="36" rx="18"/>
  </g>
  <g fill="#0f1719" opacity="0.28">
    <circle cx="522" cy="324" r="96"/>
    <circle cx="968" cy="320" r="88"/>
    <circle cx="520" cy="674" r="88"/>
    <circle cx="972" cy="672" r="96"/>
  </g>
</svg>
